HIERARCHY
ROOT HipCenter
{
    OFFSET 0.0 0.0 -0.0
    CHANNELS 6 Xposition Yposition Zposition Zrotation Xrotation Yrotation
    JOINT Spine
    {
        OFFSET 0.0 11.29879379272461 0.0
        CHANNELS 3 Zrotation Xrotation Yrotation
        JOINT ShoulderCenter
        {
            OFFSET 0.0 31.7155818939209 0.0
            CHANNELS 3 Zrotation Xrotation Yrotation
            JOINT LeftShoulder
            {
                OFFSET 12.371820449829102 0.0 0.0
                CHANNELS 3 Zrotation Xrotation Yrotation
                JOINT LeftElbow
                {
                    OFFSET 28.576499938964844 0.0 0.0
                    CHANNELS 3 Zrotation Xrotation Yrotation
                    JOINT LeftWrist
                    {
                        OFFSET 27.68238067626953 0.0 0.0
                        CHANNELS 3 Zrotation Xrotation Yrotation
                        JOINT LeftHand
                        {
                            OFFSET 3.6386945247650146 0.0 0.0
                            CHANNELS 3 Zrotation Xrotation Yrotation
                            End Site
                            {
                                OFFSET 1.4554779529571533 0.0 0.0
                            }
                        }
                    }
                }
            }
            JOINT RightShoulder
            {
                OFFSET -12.371820449829102 0.0 0.0
                CHANNELS 3 Zrotation Xrotation Yrotation
                JOINT RightElbow
                {
                    OFFSET -28.576499938964844 0.0 0.0
                    CHANNELS 3 Zrotation Xrotation Yrotation
                    JOINT RightWrist
                    {
                        OFFSET -27.68238067626953 0.0 0.0
                        CHANNELS 3 Zrotation Xrotation Yrotation
                        JOINT RightHand
                        {
                            OFFSET -3.6386945247650146 0.0 0.0
                            CHANNELS 3 Zrotation Xrotation Yrotation
                            End Site
                            {
                                OFFSET -1.4554779529571533 0.0 0.0
                            }
                        }
                    }
                }
            }
            End Site
            {
                OFFSET 0.0 12.686232566833496 0.0
            }
        }
    }
    JOINT LeftHip
    {
        OFFSET 12.995109558105469 0.0 0.0
        CHANNELS 3 Zrotation Xrotation Yrotation
        JOINT LeftKnee
        {
            OFFSET 0.0 -34.824562072753906 0.0
            CHANNELS 3 Zrotation Xrotation Yrotation
            JOINT LeftAnkle
            {
                OFFSET 0.0 -38.89946746826172 0.0
                CHANNELS 3 Zrotation Xrotation Yrotation
                JOINT LeftFoot
                {
                    OFFSET 0.0 -10.546791076660156 0.0
                    CHANNELS 3 Zrotation Xrotation Yrotation
                    End Site
                    {
                        OFFSET 0.0 0.0 4.218717098236084
                    }
                }
            }
        }
    }
    JOINT RightHip
    {
        OFFSET -12.995109558105469 0.0 0.0
        CHANNELS 3 Zrotation Xrotation Yrotation
        JOINT RightKnee
        {
            OFFSET 0.0 -34.824562072753906 0.0
            CHANNELS 3 Zrotation Xrotation Yrotation
            JOINT RightAnkle
            {
                OFFSET 0.0 -38.89946746826172 0.0
                CHANNELS 3 Zrotation Xrotation Yrotation
                JOINT RightFoot
                {
                    OFFSET 0.0 -10.546791076660156 0.0
                    CHANNELS 3 Zrotation Xrotation Yrotation
                    End Site
                    {
                        OFFSET 0.0 0.0 4.218717098236084
                    }
                }
            }
        }
    }
}
MOTION
Frames: 9
Frame Time: 0.03333333333333333
90.4000015258789 7.0 3.9000000953674316 5.1021657218649725 6.091454464605568 -98.0185031548865 5.409736848191906 23.815559115967346 0.006407435313814478 -3.0647794101682427e-06 2.4066825538734908e-06 -0.6443700639210441 97.6655838726066 -3.2984148409554943 -175.8808807614492 -9.511295064341537e-07 -1.7582479013434301e-06 38.10311759564024 -179.99995508177227 -87.45587348835531 -157.22093644936996 7.951386703658792e-15 0.0 0.0 -104.24146345109915 -1.8784044736078038 176.61191625632918 3.450913126388851e-06 -1.809875594214296e-06 -40.306867899179295 -9.680550429216638e-06 -79.02084547458065 -16.790028130967663 0.0 0.0 0.0 -1.7056121785958054 -4.673734606456643 -28.07387448585129 -6.260117820143036 14.514891797649586 -6.4657625711648175 93.78885472762384 -40.602855839047386 128.41214630079511 -6.3611093629270335e-15 0.0 0.0 11.309926359672874 -72.9039315892218 -27.58730574711512 -108.30696551574891 59.6539416706337 149.53509446690126 -89.06966265150925 -36.32144885534482 -115.24061113843584 3.1805546814635164e-15 2.648343778830095e-31 9.541664044390549e-15
88.20000457763672 7.199999809265137 3.5999999046325684 3.5763572858659183 7.1112838804505305 -97.71312448813636 6.098680973464987 24.342325392981664 0.17890313399581162 -7.81631808071991e-07 7.662632897158863e-07 -1.1821039773573976 98.31339911350122 -2.4570653776660194 -175.32998931528903 2.8392160140009653e-06 -3.848457100227522e-06 36.868408892057495 -179.9999540457739 -85.77081607265248 -156.53598295230594 -8.74652537402467e-15 1.2138242319637935e-31 -1.5902773407317582e-15 -103.34289352192683 -1.6387949610808266 178.00015530558784 -4.856896551864881e-06 -3.992672720509438e-06 -40.17554893349216 4.65722610101033e-06 -80.22164316156783 -15.596387418620349 6.361109362927032e-15 0.0 0.0 -0.430158046550932 -0.16141502131980212 -29.759106212476613 -6.3147342220010785 12.24280882334181 -5.13532137555889 92.02408929976616 -39.74446443352009 125.4055973998556 6.3611093629270335e-15 1.7655625192200634e-31 3.1805546814635168e-15 13.674435441705798 -68.721718995978 -24.28348223569903 -90.52008263435035 64.30369186854819 131.75202765965273 -90.18091834662106 -39.63284773918755 -119.61311714112884 1.5902773407317584e-15 4.4139062980501586e-32 3.1805546814635168e-15
86.0999984741211 7.400000095367432 3.0999999046325684 3.0664774349342814 7.1149188493761235 -97.33574704191341 5.1408684162723235 23.788011346552807 0.5320369437407374 1.5944832488009276e-06 -5.480232078322858e-07 -1.1844452889837054 99.32251243866169 -1.5501248068968128 -175.24369864066946 1.2190697757145075e-06 -1.788974317156353e-06 36.4038604386002 -3.4198343277560166e-05 -88.1057093778382 21.873445462360316 -8.348956038841732e-15 3.1805546814635168e-15 2.3173008064763334e-31 -101.96082287920626 -0.7783197187460437 179.13754161737145 1.0730246177824445e-06 -2.5156558708496093e-06 -38.49150773695639 -2.5536643821362573e-05 -72.25753944013348 -13.902633064881812 0.0 7.951386703658792e-16 0.0 -0.18585729717118585 3.0338637435504143 -30.747905948920277 -5.158961228967206 10.009918493467454 -4.214102969340325 89.81452468021679 -40.68730278005838 122.32501640236677 0.0 -3.1805546814635168e-15 0.0 15.023419431653643 -65.01217816775244 -20.438995107316163 -81.02134656169392 67.82159893377066 121.62120805051079 -92.13095799722635 -38.49016091158873 -122.03057914999981 4.770832022195274e-15 1.3241718894150476e-31 3.1805546814635164e-15
84.19999694824219 8.100000381469727 2.5 3.0664390215635566 7.617355277922711 -97.35522488864083 4.850463987332372 23.757619542930303 0.7170423428606062 9.342845777279805e-07 -1.3081641690637108e-06 -0.8115649443120158 99.47423162803443 -0.13645298315781737 -174.14772259130223 3.7126526800532986e-06 5.934225527375872e-07 35.4733718142452 -179.99997870223737 -86.60243736700008 -155.73016429011858 5.565970692561154e-15 0.0 0.0 -101.29333436277398 -0.44088941109202 179.54635290337774 2.6763634049754517e-06 -1.1272232234293272e-06 -36.730881996021424 -3.5312349297395162e-06 -75.35267353789729 -13.810793767071157 6.3611093629270335e-15 3.1805546814635168e-15 -1.7655625192200634e-31 1.2121978027896803 8.563329218237664 -33.11674641946464 -1.756771171986877 3.0416039124626417 -1.4021517919858018 81.83823110604366 -42.19732132544013 113.88533948905803 6.361109362927032e-15 -1.7655625192200634e-31 -3.180554681463516e-15 17.779725875118583 -62.34169405219955 -16.431790668756634 -76.5627572147631 69.83838829973007 116.1187280346001 -93.7975086081322 -37.385535190550385 -123.69838266980153 0.0 0.0 3.1805546814635168e-15
82.20000457763672 9.700000762939453 1.7999999523162842 3.576357502873126 7.61346822491253 -97.36420735112439 3.5318557243441258 23.235997700239945 1.2472984607522077 1.194242323462947e-06 -1.3748762169112106e-06 -1.1515806059797198 99.00929288353117 3.156224721035349 -172.19702432727712 2.2603757033044406e-06 -3.9154046086473555e-06 32.40071840258213 179.9999934002058 -86.9992441958712 -157.2077696601778 3.1805546814635176e-15 -3.1805546814635176e-15 -1.5902773407317588e-15 -101.14912426694634 -1.9033754695543814 -179.66988077446456 8.672300699806765e-07 -3.964061291015752e-08 -35.674609563771206 2.0942313164469567e-06 -76.40222846464479 -14.99620388330332 0.0 0.0 0.0 2.50851255564835 11.132026336221266 -34.67691227096229 -0.19280146119200703 -0.07486594394797158 0.03677497426313845 75.85442131538099 -43.33210298836376 107.23019605004939 8.827812596100317e-32 3.180554681463516e-15 -3.180554681463516e-15 18.48381155525027 -57.8590537500632 -12.651083216240957 -59.126509448401045 72.42967843539898 98.39273490247346 -98.38675255415254 -34.661832564281625 -130.33956019463056 -3.1805546814635164e-15 0.0 0.0
80.4000015258789 12.100000381469727 0.8999999761581421 4.594261670213469 7.102358254751682 -96.69640677997262 2.003553000393868 22.592139415889157 1.7681365312911215 6.954347341791346e-07 -2.1169681060932706e-06 -2.3031316560775306 98.3019301625971 5.787909001017138 -169.78525592683363 -1.4425389333403203e-06 1.7656113829480629e-06 29.479089541732996 179.9996521030264 -89.18675287821286 -156.2524195428978 -3.975693351829396e-15 -3.1805546814635168e-15 1.5902773407317582e-15 -101.53739494437077 -4.139331603747105 -177.46654470955923 3.3495316918548034e-06 1.1865300660325206e-06 -36.926333561923 2.703278683292474e-06 -65.7879176543276 -14.491028028883001 6.3611093629270335e-15 6.1623246953355635e-15 -3.420777380988873e-31 3.5273102432992762 10.792900000653217 -35.67412332810217 0.09085439461497603 -0.18383831960619682 0.09395877673520307 66.43668940496035 -42.83182803853492 95.15514290407135 6.361109362927035e-15 6.361109362927035e-15 -1.5902773407317592e-15 17.644315898051953 -53.552388354565814 -9.052692915050644 -35.586511322651326 71.95163770399189 75.46682569318426 -99.73212412305563 -33.65716451135672 -132.8873174149635 -3.1805546814635168e-15 6.3611093629270335e-15 1.7655625192200634e-31
78.69999694824219 15.000000953674316 -0.20000000298023224 5.147846505912425 7.159844162742732 -94.77992404581998 1.6620886285864342 22.651034834085902 1.6370856623590684 -1.943273065209224e-06 1.5042216989073869e-06 -3.6037734772012895 97.96401028483646 4.357364104511797 -167.34357575540525 1.9303939114242756e-06 4.529135970928366e-06 28.23577510122836 1.4163891658218651e-05 -82.72632739689811 24.20729973210481 -2.782985346280577e-15 0.0 0.0 -102.52047155125126 -6.683310381831516 -174.42347995481688 -1.4460021844284666e-06 2.9293918289482204e-07 -39.04344808773664 2.0694733997116015e-05 -70.57235971616852 -15.528816849618478 6.3611093629270335e-15 -2.782985346280577e-15 3.1805546814635168e-15 4.530892264030037 2.156267526740399 -32.38791616060076 -6.373674506570273 12.46804285187497 -6.256878679626684 64.53861197644487 -41.48415755707104 91.17373452536864 6.361109362927033e-15 -4.413906298050159e-31 -7.95138670365879e-15 16.83499775175534 -48.42741485177372 -4.803330875210679 -13.645538007543783 67.45996628438154 52.95214594096401 -98.80976508283194 -32.84081674342223 -133.38396893163065 -1.5902773407317582e-15 6.3611093629270335e-15 -3.1805546814635168e-15
77.30000305175781 17.600000381469727 -1.2000000476837158 4.635471221062661 6.658233188397043 -93.12060588334226 0.0145089040133867 23.33206949333735 1.947572331810952 -1.9270669896641693e-06 1.5938777976716011e-06 -4.393979632885246 97.72504944503315 3.8790697598250805 -164.55993799100352 -4.674871829876726e-06 -4.230543417726017e-06 26.15753384648581 1.5476239343515949e-07 -63.91878004541705 24.063733042669966 4.944768606337813e-15 0.0 0.0 -102.16806852848104 -7.547174503085968 -172.07287673651572 -2.796480767395763e-06 -1.7909411032672073e-06 -38.953881353982844 5.62406510348483e-06 -74.77549197199599 -16.05291922589175 6.361109362927033e-15 3.1805546814635164e-15 -1.7655625192200634e-31 5.033607804275123 -9.801845374407376 -25.069784709231815 -18.220054569731055 33.99127669016582 -12.780470496744321 70.06772353536593 -34.4612837027808 86.87590817396152 3.1805546814635168e-15 3.1805546814635168e-15 3.975693351829396e-15 16.664257759784835 -42.113585975172775 1.5739326903558457 -0.06353552612732911 60.38382176569564 36.921013708575416 -97.515305848909 -32.787279319484874 -132.47241771442194 -9.54166404439055e-15 2.648343778830095e-31 -3.1805546814635168e-15
75.9000015258789 19.799999237060547 -2.0 3.066477479827159 6.611379868648484 -92.44507845061422 -0.8145405240776887 24.085518318218277 2.0105724935251357 -1.0015731640069863e-07 -2.3416712118657878e-06 -2.7127218409830824 95.76477700517732 5.398421977822738 -163.19561799571116 -5.866075693895353e-06 2.760928732367345e-06 25.23462955831034 8.62027592088735e-06 -61.883925464827165 25.81670878308532 4.2738703532166e-15 1.1862373176009802e-31 3.1805546814635164e-15 -101.72392841807815 -6.930594177709714 -169.55228217297832 1.2403782798714716e-06 -4.0956580262781134e-07 -38.379472449251914 -1.5137743101287209e-05 -78.95856975298707 -15.595600684992693 0.0 0.0 -3.1805546814635176e-15 7.049380469073822 -17.73523168705983 -17.881325682841467 -32.652743897687486 52.45497876466819 -10.274131561463806 80.46122920056199 -28.981655092287863 86.42644601279497 3.310429723537619e-32 -1.5902773407317584e-15 2.3854160110976376e-15 16.188714499751246 -34.88439760220569 7.584690911774247 8.402622641199807 52.45369087057199 25.71160241929256 -96.36414850720368 -34.016226758281235 -129.56233354004775 1.5902773407317584e-15 6.361109362927033e-15 -3.1805546814635164e-15
